<?xml version="1.0" encoding="UTF-8"?><svg id="Footer" xmlns="http://www.w3.org/2000/svg" viewBox="0 0 512 512"><defs><style>.cls-1{fill:#fff;}</style></defs><path class="cls-1" d="m462,.1H50C22.39.1,0,22.48,0,50.1v411.8c0,27.61,22.39,50,50,50h412c27.61,0,50-22.39,50-50V50.1C512,22.48,489.61.1,462,.1Zm-181.34,412.71v-110.25h36.77l7-45.6h-43.77v-29.6c0-12.47,6.11-24.65,25.7-24.65h19.91v-38.8s-18.05-3.07-35.32-3.07c-36.07,0-59.61,21.83-59.61,61.36v34.76h-40.09v45.6h40.09v110.25c-75.45-11.84-133.16-77.11-133.16-155.85,0-87.15,70.64-157.76,157.82-157.76s157.82,70.61,157.82,157.76c0,78.74-57.7,144.01-133.16,155.85Z"/></svg>