<?xml version="1.0" encoding="UTF-8"?><svg id="Footer" xmlns="http://www.w3.org/2000/svg" viewBox="0 0 512 512"><defs><style>.cls-1{fill:#fff;}</style></defs><path class="cls-1" d="m462,.1H50C22.39.1,0,22.48,0,50.1v411.8c0,27.61,22.39,50,50,50h412c27.61,0,50-22.39,50-50V50.1C512,22.48,489.61.1,462,.1Zm-206,413.66c-16.3,0-31.95-2.48-46.7-7.07,6.43-10.5,16.02-27.67,19.59-41.35,1.91-7.38,9.8-37.53,9.8-37.53,5.16,9.79,20.18,18.13,36.16,18.13,47.59,0,81.89-43.76,81.89-98.14s-42.57-91.1-97.3-91.1c-68.09,0-104.3,45.69-104.3,95.49,0,23.15,12.34,51.98,32,61.14,3,1.39,4.59.75,5.3-2.11.5-2.16,3.18-12.9,4.39-17.86.39-1.59.18-3-1.09-4.52-6.41-7.95-11.64-22.47-11.64-36.01,0-34.8,26.34-68.45,71.27-68.45,38.75,0,65.93,26.4,65.93,64.18,0,42.69-21.57,72.27-49.64,72.27-15.48,0-27.11-12.79-23.36-28.49,4.45-18.77,13.05-39.01,13.05-52.55,0-12.09-6.48-22.2-19.98-22.2-15.84,0-28.57,16.33-28.57,38.28,0,13.99,4.7,23.42,4.7,23.42,0,0-15.59,66.02-18.45,78.36-3.18,13.63-1.91,32.83-.57,45.3-58.68-22.97-100.3-80.08-100.3-146.94,0-87.15,70.64-157.76,157.82-157.76s157.82,70.61,157.82,157.76-70.64,157.76-157.82,157.76Z"/></svg>