<?xml version="1.0" encoding="UTF-8"?><svg id="Layer_1" xmlns="http://www.w3.org/2000/svg" xmlns:xlink="http://www.w3.org/1999/xlink" viewBox="0 0 593.49 176.66"><defs><style>.cls-1{fill:url(#linear-gradient-2);}.cls-2{fill:#433a3f;}.cls-3{fill:url(#linear-gradient);}</style><linearGradient id="linear-gradient" x1="67.54" y1="0" x2="67.54" y2="155.72" gradientUnits="userSpaceOnUse"><stop offset="0" stop-color="#ffc837"/><stop offset="1" stop-color="#ff8008"/></linearGradient><linearGradient id="linear-gradient-2" x1="133.21" y1="92.01" x2="133.21" y2="115.7" xlink:href="#linear-gradient"/></defs><path class="cls-3" d="m82.74,18.04c-.28-20.19-22.79-22.33-35.98-11.89C7.24,42,22.42,74.5,3.23,107.99c-3.13,8.91-2.91,19.29,4.97,29.21,5.87,7.39,13.19,13.23,25.14,18.29,33.06,2.45,49.58-15.91,59.97-45.14,4.74-14.85,4.46-29.88,16.32-44.17,8.13-9.79,23.56,1.22,23.56,1.22,6.21-25.78-43.37-43.66-50.45-49.36Zm-9.91-10.45c11.1,6.03,4.36,22.14,4.36,22.14-7.84,21.22-29.86,26.58-46.64,37.81C10.53,53.93,54.54-6.89,72.84,7.6h0Z"/><path class="cls-2" d="m188.38,140.19h13.54c-2.58,11.42-9.03,17.13-19.34,17.13-6.45,0-11.55-2.45-15.31-7.35-3.76-4.9-5.64-11.66-5.64-20.28,0-8.03,1.88-14.47,5.64-19.31,3.76-4.84,8.75-7.27,14.97-7.27,3.76,0,7.37,1.17,10.83,3.51,3.46,2.34,5.99,5.44,7.57,9.31,1.58,3.87,2.47,9.96,2.65,18.29h-26.8c.22,7.55,2.32,11.33,6.3,11.33,1.36,0,2.58-.5,3.65-1.49,1.07-.99,1.71-2.28,1.93-3.87Zm-11.66-14.7h11.66c-.11-3.57-.61-6.22-1.49-7.93-.88-1.71-2.28-2.57-4.2-2.57-2.14,0-3.67.83-4.59,2.49-.92,1.66-1.38,4.33-1.38,8.01Z"/><path class="cls-2" d="m228.71,104.88v6.91h.28c3.76-5.71,8.34-8.56,13.76-8.56,3.54,0,6.34,1.18,8.43,3.54,2.08,2.36,3.12,5.54,3.12,9.56v39.39h-16.08v-31.33c0-1.73-.41-3.15-1.22-4.25-.81-1.1-1.86-1.66-3.15-1.66-3.43,0-5.14,2.15-5.14,6.46v30.78h-16.02v-50.83h16.02Z"/><path class="cls-2" d="m282.14,104.88v6.91h.28c3.76-5.71,8.34-8.56,13.76-8.56,3.54,0,6.34,1.18,8.43,3.54,2.08,2.36,3.12,5.54,3.12,9.56v39.39h-16.08v-31.33c0-1.73-.41-3.15-1.22-4.25-.81-1.1-1.86-1.66-3.15-1.66-3.43,0-5.14,2.15-5.14,6.46v30.78h-16.02v-50.83h16.02Z"/><path class="cls-2" d="m314.52,104.88h15.86l4.03,13.21c1.4,4.64,2.62,9.19,3.65,13.65h.28c.85-4.24,1.55-7.27,2.1-9.12l5.36-17.74h16.08l-21.66,71.77h-16.02l6.52-21.6-16.19-50.17Z"/><path class="cls-2" d="m406.46,81.95h16.74v53.04c0,6.81-1.78,12.31-5.33,16.49-3.56,4.18-8.26,6.27-14.12,6.27-3.68,0-7.31-1.01-10.88-3.04v-16.8c3.35,2.21,5.76,3.32,7.24,3.32,4.24,0,6.35-2.69,6.35-8.07v-51.22Z"/><path class="cls-2" d="m435.41,104.88h16.08v32.71c0,1.69.39,3.1,1.19,4.23.79,1.12,1.87,1.68,3.23,1.68,3.09,0,4.64-2.27,4.64-6.8v-31.83h16.08v29.45c0,7.48-1.75,13.2-5.25,17.16-3.5,3.96-8.55,5.94-15.14,5.94-7.37,0-12.68-2.03-15.94-6.08s-4.89-9.12-4.89-15.19v-31.27Z"/><path class="cls-2" d="m488.51,89.63c0-2.36.83-4.37,2.49-6.02,1.66-1.66,3.65-2.49,5.97-2.49s4.37.83,6.02,2.49c1.66,1.66,2.49,3.67,2.49,6.02s-.83,4.32-2.49,5.99c-1.66,1.68-3.67,2.51-6.02,2.51s-4.26-.84-5.94-2.51c-1.68-1.68-2.51-3.67-2.51-5.99Zm.44,15.25h16.08v50.83h-16.08v-50.83Z"/><path class="cls-2" d="m545.26,140.19v13.26c-3.83,2.58-7.68,3.87-11.55,3.87-5.71,0-10.29-2.48-13.73-7.43-3.44-4.95-5.17-11.61-5.17-19.97,0-7.92,1.77-14.37,5.3-19.34,3.54-4.97,8.1-7.46,13.7-7.46,3.9,0,7.75,1.38,11.55,4.14v13.15c-2.17-1.14-4.13-1.71-5.86-1.71-2.58,0-4.66,1.04-6.24,3.12-1.58,2.08-2.38,4.85-2.38,8.32,0,3.65.77,6.52,2.32,8.62,1.55,2.1,3.65,3.15,6.3,3.15,1.62,0,3.54-.57,5.75-1.71Z"/><path class="cls-2" d="m578.57,140.19h13.54c-2.58,11.42-9.02,17.13-19.34,17.13-6.45,0-11.55-2.45-15.3-7.35-3.76-4.9-5.64-11.66-5.64-20.28,0-8.03,1.88-14.47,5.64-19.31,3.76-4.84,8.75-7.27,14.97-7.27,3.76,0,7.37,1.17,10.83,3.51,3.46,2.34,5.99,5.44,7.57,9.31,1.58,3.87,2.47,9.96,2.65,18.29h-26.8c.22,7.55,2.32,11.33,6.3,11.33,1.36,0,2.58-.5,3.65-1.49s1.71-2.28,1.93-3.87Zm-11.66-14.7h11.66c-.11-3.57-.61-6.22-1.49-7.93-.88-1.71-2.28-2.57-4.2-2.57-2.14,0-3.67.83-4.59,2.49-.92,1.66-1.38,4.33-1.38,8.01Z"/><path class="cls-2" d="m149.04,88.2c-4.42-4.16-10.28-6.24-17.57-6.24h-20.72v73.76h16.74v-28.07h2.87c7.92,0,14.12-2.03,18.59-6.11,4.48-4.07,6.71-9.7,6.71-16.88s-2.21-12.3-6.63-16.47Zm-15.83,27.51c-3.64,0-6.59-2.95-6.59-6.59s6.59-17.1,6.59-17.1c0,0,6.59,13.46,6.59,17.1s-2.95,6.59-6.59,6.59Z"/><path class="cls-1" d="m133.21,115.7c-3.64,0-6.59-2.95-6.59-6.59s6.59-17.1,6.59-17.1c0,0,6.59,13.46,6.59,17.1s-2.95,6.59-6.59,6.59Z"/></svg>