<?xml version="1.0" encoding="UTF-8"?><svg id="Footer" xmlns="http://www.w3.org/2000/svg" viewBox="0 0 512 512"><defs><style>.cls-1{fill:#fff;}</style></defs><path class="cls-1" d="m462,.1H50C22.39.1,0,22.48,0,50.1v411.8c0,27.61,22.39,50,50,50h412c27.61,0,50-22.39,50-50V50.1C512,22.48,489.61.1,462,.1Zm-76.59,189.56c.2,2.89.2,5.79.2,8.68,0,88.24-67.18,189.93-189.98,189.93-37.84,0-72.98-10.95-102.55-29.97,5.39.61,10.55.82,16.14.82,31.2,0,59.93-10.54,82.89-28.51-29.34-.61-53.95-19.83-62.43-46.3,4.14.64,8.27,1.05,12.61,1.05,6,0,12-.84,17.57-2.27-30.59-6.2-53.55-33.08-53.55-65.52v-.82c8.89,4.95,19.23,8.04,30.18,8.47-17.98-12-29.77-32.46-29.77-55.59,0-12.4,3.32-23.76,9.11-33.69,32.86,40.51,82.27,66.95,137.68,69.86-1.05-4.98-1.66-10.13-1.66-15.31,0-36.78,29.77-66.75,66.77-66.75,19.23,0,36.59,8.07,48.8,21.08,15.09-2.89,29.57-8.47,42.39-16.11-4.98,15.49-15.52,28.51-29.36,36.78,13.43-1.45,26.45-5.18,38.45-10.34-9.09,13.22-20.48,25.01-33.5,34.51Z"/></svg>