<?xml version="1.0" encoding="UTF-8"?><svg id="Footer" xmlns="http://www.w3.org/2000/svg" viewBox="0 0 512 512"><defs><style>.cls-1{fill:#fff;}</style></defs><polygon class="cls-1" points="220.45 307.93 311.3 256.25 220.45 204.57 220.45 307.93"/><path class="cls-1" d="m462,0H50C22.39,0,0,22.39,0,50v412c0,27.61,22.39,50,50,50h412c27.61,0,50-22.39,50-50V50c0-27.61-22.39-50-50-50Zm-39.5,340.43c-4,15.07-15.77,26.41-30.73,30.43-27.09,7.32-135.77,7.32-135.77,7.32,0,0-108.68,0-135.77-7.32-14.95-4.02-26.73-15.36-30.73-30.43-7.27-27.27-7.27-84.18-7.27-84.18,0,0,0-56.91,7.27-84.2,4-15.05,15.77-26.89,30.73-30.91,27.09-7.32,135.77-7.32,135.77-7.32,0,0,108.68,0,135.77,7.32,14.95,4.02,26.73,15.86,30.73,30.91,7.27,27.3,7.27,84.2,7.27,84.2,0,0,0,56.91-7.27,84.18Z"/></svg>